<?xml version="1.0" standalone="no"?>
<!DOCTYPE svg PUBLIC "-//W3C//DTD SVG 20010904//EN"
 "http://www.w3.org/TR/2001/REC-SVG-20010904/DTD/svg10.dtd">
<svg version="1.0" xmlns="http://www.w3.org/2000/svg"
 width="500.000000pt" height="500.000000pt" viewBox="0 0 500.000000 500.000000"
 preserveAspectRatio="xMidYMid meet">
<metadata>
Created by potrace 1.11, written by Peter Selinger 2001-2013
</metadata>
<g transform="translate(0.000000,500.000000) scale(0.100000,-0.100000)"
fill="#000000" stroke="none">
<path d="M293 3698 c2 -7 215 -601 473 -1321 l469 -1307 154 2 154 3 468 1298
c258 714 471 1307 474 1318 6 18 -1 19 -160 19 l-166 0 -14 -35 c-8 -19 -158
-438 -334 -932 -268 -757 -370 -1064 -417 -1258 -6 -29 -7 -28 -21 25 -53 213
-133 452 -418 1255 -178 501 -326 918 -330 928 -6 15 -24 17 -172 17 -128 0
-164 -3 -160 -12z"/>
<path d="M2845 3699 c-3 -8 -4 -601 -3 -1319 l3 -1305 158 -3 157 -3 0 514 0
514 248 6 c136 4 280 12 321 18 418 61 675 258 762 584 31 113 31 346 1 455
-83 305 -283 462 -672 527 -134 22 -967 32 -975 12z m969 -298 c263 -73 376
-220 376 -486 0 -250 -103 -406 -318 -481 -106 -37 -236 -53 -484 -60 l-228
-7 0 532 0 533 288 -5 c256 -4 295 -6 366 -26z"/>
</g>
</svg>
